<?xml version="1.0" standalone="no"?>
<!DOCTYPE svg PUBLIC "-//W3C//DTD SVG 20010904//EN"
 "http://www.w3.org/TR/2001/REC-SVG-20010904/DTD/svg10.dtd">
<svg version="1.0" xmlns="http://www.w3.org/2000/svg"
 width="2000.000000pt" height="2000.000000pt" viewBox="0 0 2000.000000 2000.000000"
 preserveAspectRatio="xMidYMid meet">

<g transform="translate(0.000000,2000.000000) scale(0.100000,-0.100000)"
fill="#000000" stroke="none">
<path d="M9743 14690 c-225 -25 -411 -100 -569 -228 -39 -31 -75 -52 -100 -56
-244 -45 -388 -116 -519 -258 -74 -79 -112 -139 -175 -274 -58 -123 -81 -154
-241 -319 -138 -143 -183 -208 -205 -294 -15 -59 -15 -75 0 -195 8 -72 18
-171 22 -221 4 -68 13 -105 33 -150 53 -114 210 -299 344 -404 87 -68 106
-106 116 -225 4 -51 11 -98 15 -104 28 -46 103 35 171 184 47 105 49 112 48
194 -1 46 -4 109 -8 140 l-7 55 57 -113 c54 -106 57 -117 53 -170 -7 -104 -96
-222 -333 -442 -39 -36 -103 -108 -142 -160 -40 -52 -136 -162 -214 -245 -77
-82 -161 -182 -186 -222 -48 -78 -114 -222 -158 -345 -27 -77 -29 -79 -134
-167 -131 -109 -282 -257 -342 -337 -25 -32 -90 -131 -144 -219 -54 -88 -124
-194 -155 -235 -32 -41 -203 -217 -380 -390 -178 -173 -365 -364 -416 -425
-93 -111 -260 -279 -502 -504 -148 -137 -216 -216 -379 -434 -141 -190 -185
-264 -351 -597 -76 -151 -181 -347 -233 -435 -140 -234 -165 -282 -188 -360
-23 -78 -46 -218 -56 -340 -6 -68 -12 -88 -42 -132 -29 -44 -42 -54 -76 -63
-23 -5 -125 -37 -227 -70 -298 -96 -256 -90 -760 -106 -381 -13 -391 -12 -515
29 -137 46 -318 77 -444 77 -53 0 -157 -9 -231 -20 -74 -11 -171 -20 -215 -20
-118 0 -255 -24 -385 -67 -103 -34 -193 -83 -187 -101 1 -4 -13 -21 -31 -39
-40 -39 -40 -56 -1 -118 17 -27 33 -58 35 -69 4 -22 60 -76 80 -76 6 0 29 -12
50 -27 52 -35 130 -62 233 -79 100 -18 193 -52 270 -98 150 -91 321 -125 645
-127 174 -2 197 -4 180 -16 -25 -18 -13 -26 89 -53 255 -69 370 -70 807 -10
74 10 239 33 367 50 l231 32 58 -48 c33 -26 82 -58 110 -71 49 -22 283 -84
372 -98 28 -4 45 -13 48 -23 26 -88 83 -140 234 -215 l65 -32 155 2 c130 2
339 -11 525 -32 22 -3 132 -14 245 -25 113 -11 221 -23 240 -26 19 -2 321 -11
670 -19 695 -15 685 -14 791 -78 84 -52 110 -57 269 -56 213 1 238 5 277 44
23 23 47 36 76 40 100 17 127 45 113 119 -11 60 -46 98 -121 136 -39 19 -89
48 -111 63 -23 15 -85 43 -138 62 -128 46 -296 133 -296 154 0 10 161 58 221
66 51 6 157 53 207 92 57 43 201 285 202 338 1 19 2 18 13 -3 13 -22 14 -21
34 25 28 61 206 345 217 347 13 1 115 -274 131 -353 8 -36 19 -122 25 -191 13
-147 30 -214 64 -255 l25 -30 1 25 c0 18 15 -3 53 -74 66 -126 113 -173 230
-230 54 -27 125 -73 173 -113 153 -127 272 -236 282 -257 6 -12 19 -42 30 -67
23 -55 50 -70 177 -98 50 -10 103 -24 118 -30 16 -6 56 -11 89 -11 33 0 106
-7 162 -16 95 -16 106 -16 181 0 302 65 295 64 423 53 113 -10 126 -9 209 12
48 13 109 27 135 31 26 3 56 14 66 23 11 11 36 17 63 17 24 0 63 9 87 20 27
12 53 17 71 14 42 -9 47 12 12 43 -19 17 -31 37 -31 53 -2 67 -52 140 -195
283 l-60 59 111 -7 c121 -7 184 3 219 35 18 17 28 18 90 10 123 -16 189 -12
313 21 89 23 129 29 169 25 45 -5 52 -3 58 13 3 10 1 30 -5 45 -14 39 -13 46
10 46 35 0 33 25 -11 137 -52 130 -105 191 -212 242 -37 18 -67 36 -67 41 0 4
-23 33 -50 63 -54 59 -90 78 -185 96 -122 24 -135 37 -199 200 -60 151 -104
339 -116 498 -13 155 -29 222 -100 403 -49 125 -75 240 -51 226 15 -10 14 37
-4 154 -50 320 -53 447 -24 835 12 151 11 165 -9 250 -23 99 -38 223 -23 190
6 -13 7 21 4 91 -4 76 -1 146 10 220 28 191 29 225 12 380 -17 147 -17 153 4
260 33 175 41 232 48 359 4 72 9 111 14 100 13 -34 10 213 -6 400 -22 266 -24
278 -71 414 -36 103 -44 139 -44 196 0 46 3 65 9 56 8 -12 11 -9 16 12 10 38
2 117 -29 287 -14 80 -30 186 -36 235 -9 81 -50 229 -79 282 -8 16 -5 33 13
79 39 95 54 170 65 314 10 140 28 205 105 388 15 35 32 91 38 125 l11 62 24
-69 c20 -60 23 -89 23 -210 0 -183 30 -373 68 -433 20 -32 118 -97 136 -90 9
4 25 21 37 39 19 31 20 43 15 179 l-6 146 90 82 c123 113 126 128 66 321 -13
41 -31 125 -40 185 -9 61 -28 144 -41 186 -31 91 -149 335 -240 494 -57 100
-71 133 -101 252 -19 75 -40 144 -47 152 -51 66 -280 298 -314 318 -38 22 -88
31 -118 22 -5 -2 -35 21 -65 52 -124 124 -288 208 -504 259 -227 53 -441 75
-573 60z m571 -7529 c-3 -44 -3 -97 1 -118 l8 -38 11 34 12 34 25 -89 c26 -98
31 -207 15 -385 -7 -70 -5 -105 4 -134 13 -39 13 -39 24 -15 9 23 11 20 13
-25 9 -163 47 -296 93 -320 77 -40 127 -145 190 -398 69 -281 95 -358 143
-429 40 -58 46 -63 103 -78 71 -19 137 -56 177 -98 l28 -29 -48 3 c-26 2 -82
5 -123 8 -79 4 -242 48 -321 85 -63 30 -108 77 -154 162 -22 38 -70 104 -107
145 -114 125 -136 186 -169 464 -25 218 -50 323 -113 482 -42 106 -50 141 -82
350 -34 219 -35 233 -18 243 69 40 169 113 224 164 36 33 66 60 68 61 2 0 0
-36 -4 -79z"/>
<path d="M16300 10244 c-36 -7 -102 -32 -147 -54 -64 -32 -95 -55 -152 -116
-66 -71 -71 -74 -71 -48 l0 27 -26 -24 c-37 -35 -62 -88 -83 -181 -30 -129
-43 -253 -39 -376 3 -106 2 -112 -13 -93 -16 20 -17 20 -23 -11 -21 -107 16
-221 119 -364 l16 -22 -88 19 c-110 23 -475 43 -638 34 -89 -5 -153 -2 -245
10 -143 20 -274 16 -409 -12 l-83 -18 -65 31 c-116 57 -160 66 -295 63 -119
-3 -124 -2 -161 23 -42 30 -94 48 -209 74 -72 16 -95 34 -45 34 31 1 9 12 -87
45 -43 15 -99 40 -124 56 -25 16 -61 32 -79 35 -19 4 -63 26 -99 50 -37 23
-110 62 -163 85 -71 31 -136 72 -250 157 -281 209 -388 268 -472 260 -59 -6
-104 -42 -119 -97 -12 -43 -12 -193 0 -351 l8 -115 -57 -49 c-103 -91 -168
-167 -230 -270 -87 -147 -110 -203 -131 -317 -10 -55 -19 -101 -21 -103 -2 -1
-52 -14 -112 -29 -289 -72 -424 -203 -322 -315 43 -48 187 -148 319 -222 l99
-55 44 -130 c44 -129 58 -153 154 -268 l32 -38 -66 -67 c-36 -37 -77 -85 -92
-107 -20 -31 -38 -44 -78 -58 l-52 -17 41 3 42 2 -34 -67 c-19 -38 -33 -68
-31 -68 2 0 25 32 51 70 29 44 57 74 74 81 70 25 111 47 161 88 47 38 55 41
68 28 13 -13 13 -20 -1 -61 -19 -56 -20 -125 -3 -254 l12 -97 5 177 c5 181 11
205 45 192 15 -6 17 -16 12 -78 -7 -77 6 -190 28 -258 l15 -43 -5 50 c-20 198
-17 311 8 302 7 -2 17 -41 24 -88 15 -102 40 -179 82 -245 37 -59 39 -54 7 18
-14 30 -30 74 -36 98 -13 48 -38 200 -33 200 1 0 37 -9 78 -21 41 -11 114 -22
162 -23 l86 -3 42 -94 c74 -168 106 -220 196 -314 71 -74 92 -104 118 -165 43
-102 74 -153 158 -257 175 -215 227 -286 299 -413 43 -74 90 -154 106 -177 31
-45 143 -316 177 -427 16 -53 21 -94 21 -190 0 -106 -3 -127 -24 -171 -31 -65
-81 -111 -186 -173 -155 -92 -144 -82 -152 -137 -7 -50 3 -120 20 -137 5 -5
31 -11 58 -14 27 -4 74 -18 104 -32 44 -21 72 -26 139 -28 79 -2 85 -3 97 -27
8 -14 31 -36 51 -49 32 -20 52 -23 133 -24 61 -1 111 -7 139 -18 46 -17 108
-21 129 -8 7 5 43 2 80 -6 84 -17 157 -11 184 15 11 11 24 40 29 64 5 24 14
63 20 87 l12 42 101 0 c176 0 233 17 371 110 94 63 140 85 204 99 29 6 89 30
131 52 131 68 187 138 214 268 9 41 29 102 45 136 16 35 32 87 36 116 8 61 33
112 52 105 20 -8 33 19 44 86 18 119 31 171 39 159 16 -26 59 49 96 167 60
194 91 242 171 266 19 6 22 2 33 -51 16 -81 48 -198 73 -263 18 -49 21 -52 27
-30 5 22 8 18 24 -30 10 -30 30 -75 46 -100 16 -25 49 -87 74 -138 25 -51 61
-114 79 -140 21 -28 51 -95 75 -167 23 -66 60 -174 83 -240 41 -116 42 -125
47 -269 5 -140 6 -151 28 -173 13 -13 36 -24 51 -24 55 -3 79 -6 164 -25 75
-15 92 -16 126 -5 33 11 45 11 64 1 31 -17 132 -18 151 -2 10 8 30 10 56 6 80
-13 101 24 77 137 -24 114 -38 135 -103 159 -32 11 -68 25 -81 32 -27 14 -76
105 -97 178 -7 25 -26 83 -43 130 -22 64 -32 118 -41 215 -6 72 -14 140 -17
153 -3 15 -1 22 7 20 28 -7 39 69 41 301 2 189 5 229 16 220 10 -9 15 -5 24
17 16 43 18 64 23 259 4 125 1 201 -8 247 -12 64 -12 71 12 135 57 156 63 194
63 410 0 313 -10 381 -91 628 -58 178 -71 230 -83 340 -22 191 -85 364 -175
478 -26 34 -68 91 -92 127 -24 36 -58 83 -77 104 -41 50 -112 187 -196 381
-82 191 -80 182 -66 261 9 52 19 75 40 97 29 29 38 44 19 32 -15 -10 -12 18 6
43 25 36 93 65 164 70 57 4 73 1 118 -22 62 -31 62 -31 62 -6 0 11 3 20 6 20
15 0 68 -46 100 -88 37 -48 82 -84 96 -76 4 3 18 -2 30 -10 57 -37 217 -45
204 -10 -6 17 -1 18 25 4 16 -9 21 -7 29 15 15 39 12 115 -6 171 -8 27 -17 58
-19 70 -6 39 -57 127 -100 173 -25 27 -75 62 -120 85 -71 37 -75 40 -54 52 21
11 18 14 -52 47 -113 54 -150 61 -325 55 -130 -5 -153 -3 -143 8 9 12 5 14
-27 13 -22 0 -68 -7 -104 -15z m-4257 -2786 c-39 -34 -131 -88 -148 -88 -12 0
40 66 98 124 l59 59 18 -28 18 -28 -45 -39z m2883 -1734 c7 -55 21 -128 29
-164 11 -45 15 -102 13 -184 l-3 -120 -50 -29 c-119 -70 -236 -137 -240 -137
-6 0 21 72 45 120 32 63 48 121 70 258 15 88 33 156 67 242 26 66 49 118 51
116 2 -2 10 -48 18 -102z"/>
</g>
</svg>
